<svg width="250" height="45" viewBox="0 0 250 45" fill="none" xmlns="http://www.w3.org/2000/svg">
<mask id="mask0_503_2475" style="mask-type:luminance" maskUnits="userSpaceOnUse" x="0" y="0" width="250" height="45">
<path d="M250 0H0V44.8718H250V0Z" fill="white"/>
</mask>
<g mask="url(#mask0_503_2475)">
<path d="M50.4566 12.2839C41.3747 12.2839 34.2784 19.0765 34.2784 28.1699C34.2784 37.2632 41.1954 43.9977 50.4566 43.9977C59.7178 43.9977 66.755 37.147 66.755 28.1117C66.755 19.1347 59.8381 12.2839 50.4566 12.2839ZM50.5179 37.4443C45.346 37.4443 41.5562 33.4868 41.5562 28.1721C41.5562 22.797 45.2848 18.8418 50.4566 18.8418C55.6897 18.8418 59.4772 22.8574 59.4772 28.1721C59.4772 33.4868 55.6897 37.4443 50.5179 37.4443ZM68.7384 19.195H73.2499V43.4097H80.466V12.8742H68.7384V19.195ZM16.1169 18.8395C19.9067 18.8395 22.9136 21.1425 24.055 24.5679H31.6937C30.3094 17.2453 24.1753 12.2839 16.1782 12.2839C7.0962 12.2839 0 19.0765 0 28.1721C0 37.2677 6.917 44 16.1782 44C23.996 44 30.2504 39.0385 31.6347 31.6556H24.055C22.9726 35.081 19.9657 37.4443 16.1759 37.4443C10.9428 37.4443 7.2755 33.4868 7.2755 28.1721C7.2778 22.797 10.886 18.8395 16.1169 18.8395ZM205.857 25.2185L200.565 24.4516C198.039 24.0983 196.235 23.2711 196.235 21.3214C196.235 19.195 198.581 18.133 201.767 18.133C205.255 18.133 207.482 19.6087 207.963 22.0301H214.939C214.156 15.8882 209.345 12.2861 201.949 12.2861C194.31 12.2861 189.259 16.1252 189.259 21.5584C189.259 26.7546 192.567 29.7685 199.242 30.7121L204.534 31.479C207.121 31.8323 208.564 32.8384 208.564 34.7277C208.564 37.1492 206.038 38.1531 202.55 38.1531C198.279 38.1531 195.874 36.4404 195.513 33.8423H188.417C189.079 39.8077 193.829 44 202.489 44C210.368 44 215.599 40.4561 215.599 34.3722C215.599 28.939 211.811 26.1039 205.857 25.2185ZM76.8581 0.295101C74.2121 0.295101 72.2264 2.1844 72.2264 4.7825C72.2264 7.3806 74.2098 9.2699 76.8581 9.2699C79.504 9.2699 81.49 7.3806 81.49 4.7825C81.49 2.1844 79.504 0.295101 76.8581 0.295101ZM182.764 23.3292C182.764 16.7154 178.675 12.2861 170.015 12.2861C161.836 12.2861 157.266 16.3622 156.362 22.6226H163.52C163.881 20.2012 165.805 18.1934 169.894 18.1934C173.564 18.1934 175.368 19.7875 175.368 21.7372C175.368 24.2772 172.059 24.9256 167.97 25.3392C162.437 25.9295 155.582 27.8188 155.582 34.9066C155.582 40.4002 159.732 43.9418 166.347 43.9418C171.519 43.9418 174.767 41.8155 176.392 38.4482C176.632 41.46 178.917 43.4097 182.106 43.4097H186.315V37.0911H182.766V23.3292H182.764ZM175.668 31.0072C175.668 35.0832 172.059 38.095 167.668 38.095C164.961 38.095 162.676 36.9726 162.676 34.6115C162.676 31.5997 166.345 30.7725 169.713 30.4192C172.96 30.124 174.764 29.4153 175.668 28.0559V31.0072ZM137.359 12.2839C133.328 12.2839 129.961 13.9385 127.555 16.7132V0H120.339V43.4097H127.435V39.394C129.841 42.2873 133.27 44 137.359 44C146.019 44 152.575 37.2677 152.575 28.1721C152.575 19.0765 145.898 12.2839 137.359 12.2839ZM136.276 37.4443C131.105 37.4443 127.315 33.4868 127.315 28.1721C127.315 22.8574 131.164 18.8418 136.335 18.8418C141.568 18.8418 145.236 22.7993 145.236 28.1721C145.236 33.4868 141.448 37.4443 136.276 37.4443ZM103.078 12.2839C98.387 12.2839 95.319 14.1732 93.515 16.8317V12.8742H86.358V43.4074H93.574V26.8127C93.574 22.1464 96.581 18.8395 101.031 18.8395C105.182 18.8395 107.767 21.7328 107.767 25.9273V43.4097H114.983V25.3974C114.985 17.7171 110.957 12.2839 103.078 12.2839ZM250 27.1682C250 18.4281 243.505 12.2861 234.784 12.2861C225.523 12.2861 218.726 19.1369 218.726 28.1721C218.726 37.6813 226.004 44 234.904 44C242.423 44 248.316 39.6288 249.818 33.4287H242.3C241.218 36.1453 238.572 37.6813 235.022 37.6813C230.391 37.6813 226.903 34.8462 226.122 29.8848H249.998V27.1682H250ZM226.544 24.8049C227.688 20.5522 230.935 18.4863 234.664 18.4863C238.753 18.4863 241.88 20.7892 242.602 24.8049H226.544Z" fill="#0052FF"/>
</g>
</svg>
