<svg width="166" height="55" viewBox="0 0 166 55" fill="none" xmlns="http://www.w3.org/2000/svg">
<path fill-rule="evenodd" clip-rule="evenodd" d="M22.8191 0.124662C17.8257 0.738362 12.3301 3.30486 7.6436 7.26606C6.6951 8.04716 4.7145 9.97206 4.7145 10.0837C4.7145 10.1395 5.6629 11.1437 6.8346 12.3154L8.9547 14.4634L8.062 15.4677C4.7703 19.1779 2.5386 22.9438 1.1995 26.933C0.362701 29.4437 0 31.508 0 33.8234C0 35.9156 0.279001 37.6173 0.920601 39.2632L1.1716 39.9327L7.3925 46.1535C12.5812 51.3423 13.7529 52.4581 14.3945 52.8765C15.7335 53.7692 17.2957 54.3829 19.0253 54.7456C20.169 54.9967 22.8191 55.0804 24.0745 54.913C29.04 54.2993 34.1729 51.956 38.664 48.2179C39.836 47.2415 41.816 45.3725 41.816 45.2609C41.816 45.2051 40.84 44.2008 39.668 43.0013L37.52 40.8254L38.19 40.128C39.836 38.3984 41.844 35.6367 43.016 33.4607C44.69 30.4201 45.778 27.1283 46.14 24.1155C46.28 22.8044 46.196 20.0147 45.973 18.9547C45.583 17.1693 44.969 15.7187 44.048 14.3239C43.574 13.5986 42.625 12.6222 37.381 7.34976L31.2438 1.21266L30.6022 0.961561C29.7374 0.598861 27.9521 0.180462 26.8641 0.0688624C25.7761 -0.0427376 24.0745 -0.0148381 22.8191 0.124662ZM28.0915 1.77056C28.5379 1.88216 29.2632 2.04946 29.6537 2.18896C30.379 2.44006 30.4069 2.44006 31.5507 3.58376C32.5549 4.58806 32.6944 4.72756 32.4434 4.69966C31.1043 4.44856 28.9563 4.39276 27.2825 4.61596C21.9265 5.28546 16.403 7.99136 11.3259 12.4548C10.8238 12.9012 10.3774 13.2917 10.2937 13.3475C10.21 13.4033 9.7637 13.0407 8.4526 11.7295L6.723 9.99996L7.8389 9.02356C12.4975 4.95076 17.6304 2.38426 22.6518 1.65896C23.9908 1.46366 26.9757 1.54736 28.0915 1.77056ZM35.4 10.6416C37.855 11.0042 40.003 12.0643 41.593 13.6544C43.156 15.2166 44.16 17.2251 44.634 19.7358C44.829 20.8516 44.829 23.3623 44.634 24.6734C43.992 28.7184 42.123 32.8749 39.222 36.6688C38.553 37.5615 36.963 39.4305 36.711 39.6258C36.572 39.7374 36.405 39.5979 34.954 38.1473C34.0613 37.2546 33.336 36.5014 33.336 36.4735C33.336 36.4456 33.5871 36.1388 33.894 35.804C38.943 30.2248 41.314 23.2507 39.641 18.9268C38.971 17.253 37.576 15.9977 35.763 15.4398C34.8424 15.1608 33.2244 15.0213 32.0249 15.1608C30.1838 15.3282 27.9242 16.0535 25.7483 17.1135C23.5723 18.1736 21.5917 19.5126 19.6669 21.2422L18.8021 21.9954L17.1562 20.3495L15.5103 18.7036L16.2077 18.062C20.4759 14.0728 26.1388 11.2274 30.9927 10.5858C31.9691 10.5021 34.4798 10.5021 35.4 10.6416ZM12.3301 20.2658C11.7164 20.9632 10.9353 21.9396 10.5448 22.4417C5.914 28.6068 3.7939 35.3019 4.6587 41.0764L4.7145 41.4391L3.5707 40.3232C2.4828 39.2632 2.427 39.1795 2.2038 38.51C0.0278964 32.2612 2.7617 23.6413 9.2058 16.4161L9.959 15.5792L11.6885 17.3088L13.4181 19.0384L12.3301 20.2658ZM34.1171 16.6951L34.3403 16.7509L34.2845 17.9225C34.2287 19.3173 34.0334 20.4611 33.7545 21.4375C32.8618 24.3666 31.2159 27.2957 28.8168 30.0574L27.8963 31.1175L26.1388 29.36L24.3813 27.6025L25.1903 26.7098C26.9199 24.8129 28.51 22.6091 29.4864 20.74C30.0164 19.7358 30.7138 18.0341 30.9091 17.253C31.0206 16.7788 31.0206 16.7788 31.4391 16.723C31.6623 16.6951 31.9133 16.6672 31.997 16.6393C32.2202 16.6393 33.9219 16.6393 34.1171 16.6951ZM29.1237 17.9225C28.7332 19.0105 27.8684 20.6842 27.0315 21.9396C26.1109 23.3344 25.4693 24.1713 24.1861 25.6219L23.2934 26.654L21.5359 24.8966L19.7785 23.1391L20.3643 22.6091C22.1775 20.9911 24.2976 19.5405 26.2504 18.5362C27.3104 18.0062 29.04 17.3088 29.2911 17.2809C29.319 17.2809 29.2632 17.5599 29.1237 17.9225ZM55.848 18.9826C55.765 19.0663 55.737 21.3817 55.737 29.8621C55.737 40.1837 55.737 40.6301 55.904 40.7696C56.044 40.909 56.49 40.909 60.256 40.909C62.543 40.909 65.026 40.8533 65.751 40.8254C68.681 40.6301 70.94 39.6816 72.67 37.952C74.037 36.5851 74.901 34.6882 75.348 32.1775C75.543 30.9501 75.543 28.3836 75.348 27.1841C74.623 23.1391 72.307 20.5169 68.597 19.4568C66.784 18.9547 66.644 18.9268 61.121 18.8989C57.02 18.8989 55.932 18.8989 55.848 18.9826ZM157.419 19.3452C157.335 19.4289 157.307 20.1263 157.307 21.9117V24.3666H156.247C155.55 24.3666 155.159 24.3945 155.075 24.4781C154.936 24.6176 154.936 27.5188 155.075 27.6862C155.159 27.7699 155.55 27.7978 156.247 27.7978H157.307L157.335 32.7633C157.363 37.6173 157.363 37.7568 157.558 38.3147C158.088 39.849 159.176 40.6859 160.934 40.909C162.133 41.0485 163.835 40.9927 165.006 40.7696L165.257 40.7138L165.23 38.6773L165.202 36.6409L164.086 36.5851C162.886 36.5293 162.691 36.4735 162.552 36.2225C162.496 36.1109 162.468 34.4371 162.468 31.9543V27.8536L163.891 27.8257L165.313 27.7978V26.0961V24.3945L163.891 24.3666L162.468 24.3387V21.9396C162.468 20.4611 162.44 19.4847 162.384 19.3731C162.3 19.2058 162.161 19.2057 159.929 19.2057C158.172 19.2615 157.502 19.2894 157.419 19.3452ZM66.114 24.0597C67.816 24.506 68.932 25.7056 69.378 27.463C69.713 28.8021 69.713 31.0338 69.35 32.4286C68.987 33.7955 68.151 34.8835 67.035 35.4135C66.058 35.8877 65.473 35.9714 63.464 36.0272L61.651 36.083V29.9458V23.8086L63.603 23.8644C65.026 23.8923 65.724 23.9481 66.114 24.0597ZM83.159 24.1713C80.369 24.6734 78.221 26.5146 77.273 29.1926C76.017 32.7075 76.631 36.7246 78.751 38.9842C79.867 40.1558 80.927 40.7696 82.545 41.188C85.642 41.9691 88.961 41.1601 91.165 39.0958C91.695 38.6216 93.062 36.892 93.062 36.7246C93.062 36.5293 92.671 36.2783 91.081 35.4693C90.105 34.9671 89.296 34.5487 89.268 34.5487C89.24 34.5487 89.073 34.7998 88.905 35.1066C88.515 35.8598 87.706 36.6967 87.12 37.0036C85.363 37.8684 83.298 37.3662 82.406 35.8598C82.154 35.4135 81.903 34.6324 81.903 34.2139V33.9071H87.483C91.695 33.9071 93.062 33.8792 93.146 33.7955C93.285 33.656 93.285 32.5402 93.118 31.4243C92.671 28.4394 91.416 26.2914 89.408 25.0919C88.738 24.7013 87.455 24.255 86.618 24.1155C85.781 23.976 83.996 24.0039 83.159 24.1713ZM101.487 24.0597C100.706 24.1713 100.064 24.3108 99.562 24.4781C96.744 25.3708 94.875 27.6862 94.289 30.978C94.066 32.2333 94.15 34.2418 94.457 35.4414C94.875 37.0594 95.489 38.1194 96.605 39.1795C97.581 40.1001 98.725 40.7417 100.259 41.1601C100.706 41.2996 101.152 41.3275 102.296 41.3275C103.607 41.3275 103.802 41.2996 104.527 41.0764C105.978 40.6301 107.094 39.9606 108.098 38.9005C108.768 38.2031 109.521 37.171 109.521 36.9478C109.521 36.8641 109.381 36.7246 109.242 36.613C108.656 36.2504 105.95 34.9113 105.811 34.9113C105.727 34.9113 105.587 35.1066 105.448 35.3856C105.113 36.1109 104.667 36.5851 103.969 36.9199C103.439 37.1709 103.272 37.2267 102.686 37.1988C101.905 37.1988 101.403 37.0036 100.761 36.4456C99.088 34.9671 98.976 30.8664 100.566 28.9973C101.57 27.8257 103.439 27.8257 104.639 28.9694C104.834 29.1647 105.113 29.5274 105.253 29.7784C105.392 30.0295 105.559 30.2527 105.643 30.2527C105.838 30.3085 109.27 28.3278 109.325 28.1326C109.353 27.9652 108.991 27.4073 108.461 26.7377C107.596 25.6777 105.894 24.6455 104.416 24.3108C103.663 24.1155 102.045 24.0039 101.487 24.0597ZM146.232 24.255C145.312 24.4224 144.475 24.7571 143.805 25.2592L143.275 25.6498L143.247 25.0919L143.219 24.5339L141.071 24.506C139.174 24.4781 138.895 24.506 138.756 24.6455C138.589 24.785 138.589 25.2034 138.589 35.5251C138.589 43.7545 138.617 46.2651 138.7 46.3488C138.868 46.5162 143.554 46.5162 143.694 46.3488C143.777 46.2651 143.805 45.4282 143.805 43.1686V40.1001L144.67 40.5464C145.842 41.1322 146.567 41.2717 147.934 41.2159C149.524 41.1322 150.472 40.8254 151.505 40.0443C152.955 38.9563 153.904 37.2825 154.434 34.9671C154.713 33.7397 154.713 31.5917 154.434 30.2806C154.071 28.551 153.485 27.3794 152.425 26.2635C150.863 24.5339 148.575 23.8365 146.232 24.255ZM20.4201 25.9009C21.9265 27.4073 22.0102 27.5188 21.8986 27.6862C21.8149 27.7699 21.4522 28.1883 21.0617 28.6347C19.4995 30.42 18.0489 32.596 17.0725 34.6045C16.3751 36.0272 15.9567 37.1988 15.5382 38.7889C15.0082 40.8811 15.0082 43.1965 15.594 44.8145C16.682 47.8831 19.5553 49.3337 23.5723 48.8595C27.4499 48.3852 31.9133 46.1535 35.735 42.7781L36.544 42.0528L38.19 43.6987L39.836 45.3446L39.138 45.9862C35.568 49.3058 30.7975 52.0118 26.6688 53.016C24.9951 53.4345 23.8234 53.574 22.2333 53.574C20.1132 53.574 18.551 53.295 16.9051 52.5697C14.785 51.6491 12.8323 49.8359 11.828 47.8273C10.5727 45.3446 10.21 42.276 10.768 38.9563C11.5491 34.3255 14.1434 29.36 17.9652 25.0919C18.3557 24.6455 18.7184 24.2829 18.7463 24.2829C18.7742 24.2829 19.5274 25.0082 20.4201 25.9009ZM119.675 24.3945C118.587 24.5618 117.22 25.064 116.327 25.6498L116.048 25.8451V25.2592C116.048 24.9245 115.993 24.6455 115.937 24.5618C115.853 24.4781 115.212 24.4502 113.566 24.4502C111.501 24.4502 111.278 24.4502 111.167 24.6176C111.027 24.7571 111.027 25.4545 111.027 32.7075C111.027 40.2674 111.027 40.6301 111.195 40.7696C111.334 40.909 111.641 40.909 113.649 40.909C115.435 40.909 115.965 40.8812 116.048 40.7975C116.104 40.7138 116.16 39.0679 116.16 35.6924C116.188 31.0059 116.188 30.6711 116.355 30.3643C116.69 29.6947 117.276 29.4158 118.978 29.1368C119.619 29.0252 120.261 28.9136 120.4 28.8857L120.651 28.83V26.654C120.651 24.4781 120.623 24.2271 120.344 24.2829C120.233 24.3108 119.954 24.3387 119.675 24.3945ZM121.962 24.5897C121.907 24.6734 121.879 24.8129 121.907 24.9524C121.935 25.064 122.688 27.5188 123.58 30.3643C127.151 41.8575 126.956 41.188 126.705 41.6343C126.482 42.0807 126.091 42.1644 124.696 42.1644C123.832 42.1644 123.385 42.1923 123.329 42.276C123.246 42.3596 123.218 42.9176 123.218 44.2845C123.218 45.6514 123.246 46.2093 123.329 46.293C123.469 46.4325 127.012 46.4325 127.932 46.3209C129.467 46.0978 130.722 45.0098 131.447 43.2802C131.615 42.9176 133.037 38.5937 134.627 33.6839C137.054 26.2635 137.529 24.7292 137.417 24.6176C137.333 24.506 136.915 24.4781 134.711 24.4781H132.117L132.033 24.8687C131.977 25.0919 131.447 27.4073 130.833 30.0574C130.22 32.7075 129.718 34.9113 129.662 34.9392C129.634 34.9671 129.048 32.6239 128.407 29.7505L127.207 24.4781H124.613C122.465 24.4781 122.046 24.4781 121.962 24.5897ZM86.339 28.0768C87.176 28.4673 87.734 29.2205 87.901 30.1411L87.957 30.4758H84.972H81.987L82.043 30.1969C82.155 29.6947 82.629 28.8858 83.019 28.551C83.689 27.9652 84.275 27.7699 85.195 27.8257C85.642 27.8536 85.976 27.9373 86.339 28.0768ZM147.906 28.2162C148.687 28.6347 149.273 29.4995 149.552 30.6711C149.747 31.5359 149.747 33.6002 149.524 34.465C149.329 35.2182 148.938 35.9993 148.52 36.5293C147.85 37.3383 146.539 37.5615 145.479 37.0315C144.252 36.4177 143.666 35.0508 143.666 32.7633C143.666 30.6432 144.224 29.1368 145.256 28.3836C146.065 27.8257 147.041 27.7699 147.906 28.2162ZM25.8877 32.7354C23.6002 34.8835 20.6711 36.8083 18.2442 37.7847C17.742 37.9799 17.2957 38.1473 17.2678 38.1473C17.2399 38.1473 17.3515 37.8405 17.491 37.4499C18.551 34.5208 20.3922 31.5359 22.596 29.1647L23.126 28.6068L24.8835 30.3364L26.6409 32.0659L25.8877 32.7354ZM29.4027 34.9113L31.1043 36.613L30.5743 37.1152C27.7847 39.7374 23.4887 42.1086 20.448 42.7502C19.6948 42.9176 18.021 43.085 17.212 43.085H16.682V41.8017C16.682 41.1043 16.7099 40.3511 16.7378 40.1837L16.7936 39.849L17.8815 39.4863C20.6432 38.5937 24.1582 36.3898 26.7525 33.935C27.171 33.5444 27.5615 33.2097 27.6173 33.2097C27.6731 33.2097 28.4821 33.9629 29.4027 34.9113Z" fill="#1D1D1B"/>
</svg>
