<svg width="32" height="32" viewBox="0 0 32 32" fill="none" xmlns="http://www.w3.org/2000/svg">
<circle cx="16.0547" cy="16.0547" r="13.3547" stroke="#3a3f73" stroke-width="1.4"/>
<circle cx="15.8859" cy="15.8316" r="11.4507" stroke="#3a3f73" stroke-width="0.3"/>
<rect x="8.85547" y="17.6163" width="2.2309" height="6.24653" rx="1" fill="#3a3f73"/>
<rect x="15.2793" y="13.6007" width="2.2309" height="10.2622" rx="1" fill="#3a3f73"/>
<rect x="12.0664" y="15.3854" width="2.2309" height="8.47743" rx="1" fill="#3a3f73"/>
<rect x="18.4902" y="13.6007" width="2.2309" height="10.2622" rx="1" fill="#3a3f73"/>
<rect x="21.7031" y="11.3698" width="2.2309" height="12.4931" rx="1" fill="#3a3f73"/>
<path d="M21.9238 10.7663L21.3125 9.70772L16.3584 12.8855L16.0967 12.4763L15.8691 12.7048L14.0957 10.9323L8.22168 16.3991L7.61328 15.7458L13.793 9.9958L14.0195 10.239L14.3428 9.9167L16.293 11.8669L20.8662 8.93428L20.1855 7.75459H23.6631L21.9238 10.7663Z" fill="#3a3f73"/>
<circle cx="7.80404" cy="16.0547" r="0.669271" fill="#3a3f73"/>
<circle cx="14.0501" cy="10.2543" r="0.669271" fill="#3a3f73"/>
<circle cx="16.2806" cy="12.4852" r="0.669271" fill="#3a3f73"/>
</svg>
